<?xml version="1.0" standalone="no"?><!DOCTYPE svg PUBLIC "-//W3C//DTD SVG 1.1//EN" "http://www.w3.org/Graphics/SVG/1.1/DTD/svg11.dtd"><svg t="1505481885619" class="icon" style="" viewBox="0 0 1024 1024" version="1.1" xmlns="http://www.w3.org/2000/svg" p-id="11902" xmlns:xlink="http://www.w3.org/1999/xlink" width="64" height="64"><defs><style type="text/css"></style></defs><path d="M512 103.263875c55.197136 0 108.721167 10.800997 159.086252 32.104185 48.667419 20.584827 92.38306 50.061163 129.934305 87.612407s67.027579 81.266885 87.612407 129.934305c21.303188 50.365084 32.104185 103.889115 32.104185 159.086252s-10.800997 108.721167-32.104185 159.086252c-20.584827 48.667419-50.061163 92.38306-87.612407 129.934305s-81.266885 67.027579-129.934305 87.612407c-50.365084 21.303188-103.889115 32.104185-159.086252 32.104185S403.278833 909.935128 352.913748 888.63194c-48.667419-20.584827-92.38306-50.061163-129.934305-87.612407s-67.027579-81.266885-87.612407-129.934305c-21.302165-50.365084-32.103162-103.889115-32.103162-159.086252s10.800997-108.721167 32.103162-159.086252c20.584827-48.667419 50.061163-92.38306 87.612407-129.934305s81.266885-67.027579 129.934305-87.612407C403.278833 114.064872 456.802864 103.263875 512 103.263875M512 62.389956c-248.312412 0-449.610044 201.297632-449.610044 449.610044s201.296609 449.610044 449.610044 449.610044 449.610044-201.297632 449.610044-449.610044S760.312412 62.389956 512 62.389956L512 62.389956z" p-id="11903" fill="#e6e6e6"></path><path d="M332.538699 412.157038m-61.310368 0a59.914 59.914 0 1 0 122.620735 0 59.914 59.914 0 1 0-122.620735 0Z" p-id="11904" fill="#e6e6e6"></path><path d="M661.23079 412.157038m-61.310368 0a59.914 59.914 0 1 0 122.620735 0 59.914 59.914 0 1 0-122.620735 0Z" p-id="11905" fill="#e6e6e6"></path><path d="M512 809.806663c125.455293 0 227.15044-101.695147 227.15044-227.140207L284.84956 582.666456C284.84956 708.111516 386.544707 809.806663 512 809.806663z" p-id="11906" fill="#e6e6e6"></path></svg>