<?xml version="1.0" standalone="no"?><!DOCTYPE svg PUBLIC "-//W3C//DTD SVG 1.1//EN" "http://www.w3.org/Graphics/SVG/1.1/DTD/svg11.dtd"><svg t="1505482075650" class="icon" style="" viewBox="0 0 1024 1024" version="1.1" xmlns="http://www.w3.org/2000/svg" p-id="16913" xmlns:xlink="http://www.w3.org/1999/xlink" width="64" height="64"><defs><style type="text/css"></style></defs><path d="M512 985.935872C250.671104 985.935872 38.064128 773.328896 38.064128 512S250.671104 38.064128 512 38.064128 985.935872 250.671104 985.935872 512 773.328896 985.935872 512 985.935872zM512 61.183317C263.427413 61.183317 61.183317 263.416491 61.183317 512S263.427413 962.816683 512 962.816683 962.816683 760.583509 962.816683 512 760.572587 61.183317 512 61.183317z" p-id="16914" fill="#8a8a8a"></path><path d="M743.187797 546.678101 280.812203 546.678101c-19.144704 0-34.678101-15.521109-34.678101-34.678101s15.533397-34.678101 34.678101-34.678101l462.37696 0c19.144704 0 34.678101 15.521109 34.678101 34.678101S762.333867 546.678101 743.187797 546.678101z" p-id="16915" fill="#8a8a8a"></path><path d="M512 777.865899c-19.144704 0-34.678101-15.521109-34.678101-34.678101L477.321899 280.812203c0-19.156992 15.533397-34.678101 34.678101-34.678101s34.678101 15.521109 34.678101 34.678101l0 462.37696C546.678101 762.344789 531.144704 777.865899 512 777.865899z" p-id="16916" fill="#8a8a8a"></path></svg>