<?xml version="1.0" standalone="no"?><!DOCTYPE svg PUBLIC "-//W3C//DTD SVG 1.1//EN" "http://www.w3.org/Graphics/SVG/1.1/DTD/svg11.dtd"><svg t="1505129212455" class="icon" style="" viewBox="0 0 1024 1024" version="1.1" xmlns="http://www.w3.org/2000/svg" p-id="5283" xmlns:xlink="http://www.w3.org/1999/xlink" width="200" height="200"><defs><style type="text/css"></style></defs><path d="M914.379347 209.559806l-0.610914-1.547239-0.747014-1.486864c-17.998933-35.812647-40.325427-64.573691-66.36243-85.482907-24.453948-19.639293-52.349275-32.576953-82.911338-38.4538-60.534701-11.642155-129.834021 4.056386-205.970048 46.659693-21.24179 11.885701-39.954991 24.220634-54.986335 34.930557-15.031345-10.708899-33.745569-23.044856-54.986335-34.930557-76.137051-42.603307-145.434324-58.303894-205.971072-46.659693-30.562063 5.877871-58.45739 18.815531-82.911338 38.4538-26.03598 20.909216-48.363498 49.67026-66.36243 85.482907l-0.747014 1.486864-0.611937 1.547239c-24.991184 63.232137-16.593933 137.580448 24.958438 220.980927 30.915104 62.049195 80.600713 129.948631 147.676387 201.813379 107.453291 115.125017 223.453235 202.339358 237.912551 213.0677l0.733711 0.998747c0.075725-0.056282 0.182149-0.134053 0.309038-0.227174 0.12689 0.093121 0.233314 0.170892 0.309038 0.227174l0.733711-0.998747c14.459317-10.728342 130.459261-97.942683 237.912551-213.0677 67.075675-71.864748 116.761284-139.764184 147.676387-201.813379C930.974303 347.140255 939.371554 272.79092 914.379347 209.559806zM822.954101 396.958894c-27.592428 55.514361-73.008804 117.379361-134.987391 183.876867-67.473741 72.392774-140.088572 134.453225-185.185676 170.910555-44.910862-36.298717-117.123534-98.009198-184.506201-170.202427-62.175061-66.614164-107.751073-128.591727-135.462205-184.210465-31.361265-62.946634-39.074947-116.395964-22.935362-158.905126 24.432459-47.876404 55.81112-74.92955 95.882767-82.683141 52.946886-10.245342 113.169479 14.879895 154.367787 37.759999 47.661509 26.469861 81.794911 56.396451 82.133625 56.69628l1.320065-1.493004-1.287319 1.518586 10.296507 10.287297 10.742668-10.360975 0.017396 0.019443c0.329505-0.290619 33.404808-29.421077 80.790024-55.935963 41.520649-23.233144 102.210893-48.77282 155.542542-38.517245 40.137139 7.719822 71.560826 34.782178 96.019891 82.71077C861.809037 280.850479 854.1588 334.175989 822.954101 396.958894z" p-id="5284" fill="#e6e6e6"></path></svg>