<?xml version="1.0" standalone="no"?><!DOCTYPE svg PUBLIC "-//W3C//DTD SVG 1.1//EN" "http://www.w3.org/Graphics/SVG/1.1/DTD/svg11.dtd"><svg t="1505481693260" class="icon" style="" viewBox="0 0 1024 1024" version="1.1" xmlns="http://www.w3.org/2000/svg" p-id="7965" xmlns:xlink="http://www.w3.org/1999/xlink" width="64" height="64"><defs><style type="text/css"></style></defs><path d="M165.925 486.133h735.757c20.911 0 37.862 16.951 37.862 37.862s-16.951 37.862-37.862 37.862h-735.757c-20.911 0-37.862-16.951-37.862-37.862s16.951-37.862 37.862-37.862z" p-id="7966" fill="#e6e6e6"></path><path d="M387.528 197.448c9.281-0.001 18.582 3.393 25.886 10.246 15.24 14.301 16.001 38.247 1.701 53.488l-241.030 256.866 241.030 256.868c14.301 15.24 13.538 39.186-1.701 53.487-15.241 14.302-39.188 13.537-53.488-1.702l-265.326-282.761c-13.662-14.56-13.662-37.227 0-51.786l265.326-282.76c7.449-7.939 17.514-11.949 27.603-11.949z" p-id="7967" fill="#e6e6e6"></path></svg>